<svg xmlns="http://www.w3.org/2000/svg" viewBox="0 0 520 130">
  <g transform="translate(6,8)">
    <path d="M50 4 C62 4 74 8.5 88 16 L88 51 C88 81 71 100 50 111 C29 100 12 81 12 51 L12 16 C26 8.5 38 4 50 4 Z" fill="#0A0A0A" stroke="#B8D935" stroke-width="3"/>
    <path d="M35 15 L36.4 18.6 L40.2 18.9 L37.3 21.3 L38.3 25 L35 22.9 L31.7 25 L32.7 21.3 L29.8 18.9 L33.6 18.6 Z" fill="#B8D935"/>
    <path d="M50 11 L51.6 15.1 L56 15.4 L52.6 18.2 L53.7 22.5 L50 20.1 L46.3 22.5 L47.4 18.2 L44 15.4 L48.4 15.1 Z" fill="#B8D935"/>
    <path d="M65 15 L66.4 18.6 L70.2 18.9 L67.3 21.3 L68.3 25 L65 22.9 L61.7 25 L62.7 21.3 L59.8 18.9 L63.6 18.6 Z" fill="#B8D935"/>
    <text x="50" y="58" text-anchor="middle" font-family="Arial, Helvetica, sans-serif" font-weight="800" font-size="30" letter-spacing="-0.5" fill="#FFFFFF">FFP</text>
    <path d="M20 78 C36 92 64 92 80 78" stroke="#B8D935" stroke-width="3" fill="none" stroke-linecap="round"/>
    <circle cx="50" cy="88" r="10" fill="#FFFFFF"/>
    <path d="M50 80.5 L54.1 83.5 L52.5 88.3 L47.5 88.3 L45.9 83.5 Z" fill="#0A0A0A"/>
  </g>
  <text x="128" y="52" font-family="Arial, Helvetica, sans-serif" font-weight="800" font-size="32" letter-spacing="1" fill="#0A0A0A">FOOTBALL</text>
  <text x="128" y="86" font-family="Arial, Helvetica, sans-serif" font-weight="800" font-size="32" letter-spacing="1" fill="#7C9A24">FUTURE PROS</text>
  <text x="129" y="108" font-family="Arial, Helvetica, sans-serif" font-weight="500" font-size="13" letter-spacing="3" fill="#6B6F6B">DISCOVER TALENT. BUILD FUTURES.</text>
</svg>
